<svg width="50" height="50" viewBox="0 0 50 50" fill="none" xmlns="http://www.w3.org/2000/svg">
<path d="M25 10.9375C25 10.5231 24.8354 10.1257 24.5424 9.83265C24.2493 9.53962 23.8519 9.375 23.4375 9.375C23.0231 9.375 22.6257 9.53962 22.3326 9.83265C22.0396 10.1257 21.875 10.5231 21.875 10.9375V28.125C21.8751 28.4004 21.948 28.6709 22.0863 28.9091C22.2246 29.1473 22.4234 29.3446 22.6625 29.4813L33.6 35.7313C33.9589 35.9252 34.3795 35.9711 34.7718 35.8591C35.1641 35.7471 35.4971 35.4861 35.6995 35.1319C35.9019 34.7776 35.9578 34.3583 35.8551 33.9634C35.7524 33.5685 35.4994 33.2295 35.15 33.0187L25 27.2188V10.9375Z" fill="white"/>
<path d="M25 50C31.6304 50 37.9893 47.3661 42.6777 42.6777C47.3661 37.9893 50 31.6304 50 25C50 18.3696 47.3661 12.0107 42.6777 7.32233C37.9893 2.63392 31.6304 0 25 0C18.3696 0 12.0107 2.63392 7.32233 7.32233C2.63392 12.0107 0 18.3696 0 25C0 31.6304 2.63392 37.9893 7.32233 42.6777C12.0107 47.3661 18.3696 50 25 50ZM46.875 25C46.875 30.8016 44.5703 36.3656 40.468 40.468C36.3656 44.5703 30.8016 46.875 25 46.875C19.1984 46.875 13.6344 44.5703 9.53204 40.468C5.42968 36.3656 3.125 30.8016 3.125 25C3.125 19.1984 5.42968 13.6344 9.53204 9.53204C13.6344 5.42968 19.1984 3.125 25 3.125C30.8016 3.125 36.3656 5.42968 40.468 9.53204C44.5703 13.6344 46.875 19.1984 46.875 25Z" fill="white"/>
</svg>
