<svg width="30" height="30" viewBox="0 0 30 30" fill="none" xmlns="http://www.w3.org/2000/svg">
<g clip-path="url(#clip0)">
<path d="M13.2529 1.36357C13.7086 -0.455176 16.2904 -0.455176 16.7479 1.36357L16.8811 1.89982C16.959 2.21146 17.1188 2.49658 17.3441 2.72559C17.5693 2.9546 17.8518 3.11915 18.1621 3.20218C18.4724 3.28521 18.7993 3.28369 19.1088 3.19777C19.4183 3.11185 19.6992 2.94467 19.9223 2.71357L20.3067 2.31795C21.6098 0.969824 23.8467 2.2617 23.3311 4.06357L23.1811 4.59607C23.0928 4.90479 23.0886 5.23151 23.1691 5.54235C23.2496 5.8532 23.4118 6.13685 23.6389 6.3639C23.8659 6.59095 24.1496 6.75313 24.4604 6.83363C24.7713 6.91413 25.098 6.91001 25.4067 6.8217L25.9373 6.66982C27.7373 6.1542 29.0311 8.39108 27.6829 9.6942L27.2873 10.0786C27.0562 10.3017 26.889 10.5826 26.8031 10.8921C26.7172 11.2016 26.7157 11.5285 26.7987 11.8388C26.8817 12.1491 27.0463 12.4316 27.2753 12.6568C27.5043 12.8821 27.7894 13.0419 28.1011 13.1198L28.6373 13.2529C30.4561 13.7086 30.4561 16.2904 28.6373 16.7479L28.1011 16.8811C27.7894 16.959 27.5043 17.1188 27.2753 17.3441C27.0463 17.5693 26.8817 17.8518 26.7987 18.1621C26.7157 18.4724 26.7172 18.7993 26.8031 19.1088C26.889 19.4183 27.0562 19.6992 27.2873 19.9223L27.6829 20.3067C29.0311 21.6098 27.7392 23.8467 25.9373 23.3311L25.4048 23.1811C25.0961 23.0928 24.7694 23.0886 24.4585 23.1691C24.1477 23.2496 23.864 23.4118 23.637 23.6389C23.4099 23.8659 23.2478 24.1496 23.1673 24.4604C23.0868 24.7713 23.0909 25.098 23.1792 25.4067L23.3311 25.9373C23.8467 27.7373 21.6098 29.0311 20.3067 27.6829L19.9223 27.2873C19.6992 27.0562 19.4183 26.889 19.1088 26.8031C18.7993 26.7172 18.4724 26.7157 18.1621 26.7987C17.8518 26.8817 17.5693 27.0463 17.3441 27.2753C17.1188 27.5043 16.959 27.7894 16.8811 28.1011L16.7479 28.6373C16.2923 30.4561 13.7104 30.4561 13.2529 28.6373L13.1198 28.1011C13.0419 27.7894 12.8821 27.5043 12.6568 27.2753C12.4316 27.0463 12.1491 26.8817 11.8388 26.7987C11.5285 26.7157 11.2016 26.7172 10.8921 26.8031C10.5826 26.889 10.3017 27.0562 10.0786 27.2873L9.6942 27.6829C8.39108 29.0311 6.1542 27.7392 6.66982 25.9373L6.81982 25.4048C6.90797 25.0963 6.91203 24.7698 6.83161 24.4592C6.75118 24.1486 6.58919 23.8651 6.3624 23.6381C6.13561 23.4111 5.85226 23.2489 5.54171 23.1682C5.23115 23.0875 4.90467 23.0913 4.59607 23.1792L4.06357 23.3311C2.26357 23.8467 0.969824 21.6098 2.31795 20.3067L2.71357 19.9223C2.94467 19.6992 3.11185 19.4183 3.19777 19.1088C3.28369 18.7993 3.28521 18.4724 3.20218 18.1621C3.11915 17.8518 2.9546 17.5693 2.72559 17.3441C2.49658 17.1188 2.21146 16.959 1.89982 16.8811L1.36357 16.7479C-0.455176 16.2923 -0.455176 13.7104 1.36357 13.2529L1.89982 13.1198C2.21146 13.0419 2.49658 12.8821 2.72559 12.6568C2.9546 12.4316 3.11915 12.1491 3.20218 11.8388C3.28521 11.5285 3.28369 11.2016 3.19777 10.8921C3.11185 10.5826 2.94467 10.3017 2.71357 10.0786L2.31795 9.6942C0.969824 8.39108 2.2617 6.1542 4.06357 6.66982L4.59607 6.81982C4.9046 6.90797 5.23107 6.91203 5.5417 6.83161C5.85232 6.75118 6.1358 6.58919 6.36278 6.3624C6.58977 6.13561 6.752 5.85226 6.83269 5.54171C6.91337 5.23115 6.90958 4.90467 6.8217 4.59607L6.66982 4.06357C6.1542 2.26357 8.39108 0.969824 9.6942 2.31795L10.0786 2.71357C10.3017 2.94467 10.5826 3.11185 10.8921 3.19777C11.2016 3.28369 11.5285 3.28521 11.8388 3.20218C12.1491 3.11915 12.4316 2.9546 12.6568 2.72559C12.8821 2.49658 13.0419 2.21146 13.1198 1.89982L13.2529 1.36357ZM24.3248 15.9379H15.4692L10.1554 23.0236C11.509 23.8411 13.0473 24.3028 14.6273 24.3658C16.2073 24.4287 17.7776 24.0909 19.1918 23.3836C20.6061 22.6764 21.8184 21.6228 22.7159 20.3209C23.6134 19.0191 24.1669 17.5113 24.3248 15.9379ZM24.3248 14.0629C24.1669 12.4896 23.6134 10.9818 22.7159 9.67995C21.8184 8.37809 20.6061 7.3245 19.1918 6.61727C17.7776 5.91004 16.2073 5.57217 14.6273 5.63513C13.0473 5.69808 11.509 6.15981 10.1554 6.97732L15.4692 14.0648H24.3248V14.0629ZM9.46545 7.43857C9.4092 7.47795 9.3567 7.5192 9.30232 7.56045L9.46545 7.43857ZM8.65732 8.1042C7.70176 8.98071 6.93905 10.0465 6.41773 11.2337C5.89641 12.421 5.62787 13.7038 5.6292 15.0004C5.6292 17.7286 6.79545 20.1848 8.65732 21.8967L13.8286 15.0004L8.65732 8.1042ZM9.30232 22.4404L9.46545 22.5623L9.30232 22.4404Z" fill="white"/>
</g>
<defs>
<clipPath id="clip0">
<rect width="30" height="30" fill="white"/>
</clipPath>
</defs>
</svg>
