<svg width="50" height="50" viewBox="0 0 50 50" fill="none" xmlns="http://www.w3.org/2000/svg">
<path d="M26.5625 17.5C26.5625 17.0856 26.3979 16.6882 26.1049 16.3951C25.8118 16.1021 25.4144 15.9375 25 15.9375C24.5856 15.9375 24.1882 16.1021 23.8951 16.3951C23.6021 16.6882 23.4375 17.0856 23.4375 17.5V26.5625H14.0625C13.6481 26.5625 13.2507 26.7271 12.9576 27.0201C12.6646 27.3132 12.5 27.7106 12.5 28.125C12.5 28.5394 12.6646 28.9368 12.9576 29.2299C13.2507 29.5229 13.6481 29.6875 14.0625 29.6875H25C25.4144 29.6875 25.8118 29.5229 26.1049 29.2299C26.3979 28.9368 26.5625 28.5394 26.5625 28.125V17.5Z" fill="white"/>
<path d="M20.3123 3.125C20.3123 2.7106 20.4769 2.31317 20.7699 2.02015C21.0629 1.72712 21.4604 1.5625 21.8748 1.5625H28.1248C28.5392 1.5625 28.9366 1.72712 29.2296 2.02015C29.5226 2.31317 29.6873 2.7106 29.6873 3.125C29.6873 3.5394 29.5226 3.93683 29.2296 4.22985C28.9366 4.52288 28.5392 4.6875 28.1248 4.6875V6.46875C32.3748 7.08125 36.231 8.90625 39.3248 11.5938C39.3371 11.5801 39.3496 11.5665 39.3623 11.5531L40.4685 10.4469L39.3623 9.34375C39.0689 9.05077 38.9039 8.65324 38.9036 8.2386C38.9033 7.82397 39.0677 7.42621 39.3607 7.13281C39.6537 6.83942 40.0512 6.67442 40.4658 6.67413C40.8805 6.67384 41.2782 6.83827 41.5716 7.13125L45.9904 11.5531C46.1396 11.6973 46.2587 11.8697 46.3405 12.0603C46.4224 12.2509 46.4655 12.456 46.4673 12.6634C46.4691 12.8709 46.4296 13.0767 46.351 13.2687C46.2725 13.4607 46.1565 13.6352 46.0098 13.7819C45.8631 13.9286 45.6886 14.0446 45.4966 14.1232C45.3045 14.2017 45.0988 14.2413 44.8913 14.2395C44.6839 14.2377 44.4788 14.1945 44.2882 14.1127C44.0976 14.0308 43.9252 13.9117 43.781 13.7625L42.6779 12.6563L41.5716 13.7625C41.5583 13.7752 41.5448 13.7877 41.531 13.8C44.7128 17.473 46.581 22.1009 46.8408 26.9534C47.1006 31.806 45.7372 36.6069 42.9658 40.5986C40.1943 44.5903 36.1726 47.5455 31.5353 48.998C26.8979 50.4504 21.9089 50.3173 17.3556 48.6198C12.8022 46.9222 8.94375 43.7568 6.389 39.6231C3.83426 35.4893 2.72869 30.6226 3.24677 25.7908C3.76485 20.959 5.87706 16.4372 9.25012 12.9391C12.6232 9.44092 17.065 7.1655 21.8748 6.47188V4.6875C21.4604 4.6875 21.0629 4.52288 20.7699 4.22985C20.4769 3.93683 20.3123 3.5394 20.3123 3.125ZM24.9998 9.375C22.5375 9.37521 20.0993 9.86039 17.8246 10.8029C15.5498 11.7453 13.4829 13.1266 11.742 14.8679C8.22596 18.3845 6.25091 23.1538 6.25133 28.1266C6.25174 33.0994 8.22758 37.8683 11.7442 41.3844C15.2608 44.9004 20.0301 46.8754 25.0029 46.875C29.9757 46.8746 34.7447 44.8987 38.2607 41.3821C41.7767 37.8655 43.7517 33.0962 43.7513 28.1234C43.7509 23.1506 41.7751 18.3817 38.2585 14.8656C34.7419 11.3496 29.9726 9.37459 24.9998 9.375Z" fill="white"/>
</svg>
