<svg width="21" height="16" viewBox="0 0 21 16" fill="none" xmlns="http://www.w3.org/2000/svg">
<g clip-path="url(#clip0)">
<path d="M4.77274 15.754V7.64031L2.25643 5.33826L0 4.06079V14.3222C0 15.1144 0.641895 15.754 1.43186 15.754H4.77274V15.754Z" fill="#4285F4"/>
<path d="M16.2273 15.7542H19.5682C20.3605 15.7542 21 15.1122 21 14.3223V4.06104L18.4442 5.52423L16.2273 7.64047V15.7542V15.7542Z" fill="#34A853"/>
<path d="M4.77274 7.64031L4.43034 4.47004L4.77274 1.43579L10.5 5.73128L16.2273 1.43579L16.6103 4.30623L16.2273 7.64031L10.5 11.9358L4.77274 7.64031Z" fill="#EA4335"/>
<path d="M16.2273 1.43585V7.64036L21 4.06085V2.15174C21 0.381092 18.9788 -0.628303 17.5637 0.433592L16.2273 1.43585Z" fill="#FBBC04"/>
<path d="M0 4.06064L2.19507 5.70701L4.77274 7.64016V1.43564L3.43629 0.433385C2.01879 -0.628591 0 0.380885 0 2.15145V4.06056V4.06064Z" fill="#C5221F"/>
</g>
<defs>
<clipPath id="clip0">
<rect width="21" height="15.832" fill="white"/>
</clipPath>
</defs>
</svg>
