<svg width="22" height="23" viewBox="0 0 22 23" fill="none" xmlns="http://www.w3.org/2000/svg">
<g clip-path="url(#clip0)">
<path d="M5.81479 19.0628L6.17444 19.2427C7.67319 20.1418 9.35163 20.5615 11.0302 20.5615C16.3054 20.5615 20.6216 16.2453 20.6216 10.9701C20.6216 8.45235 19.6024 5.99454 17.8041 4.19612C16.0057 2.39771 13.6078 1.37866 11.0302 1.37866C5.75489 1.37866 1.43868 5.69479 1.49866 11.03C1.49866 12.8284 2.03818 14.5669 2.93734 16.0655L3.17711 16.4252L2.21805 19.962L5.81479 19.0628Z" fill="#00E676"/>
<path d="M18.8231 3.23709C16.785 1.13902 13.9675 0 11.0901 0C4.97561 0 0.0599844 4.97552 0.119883 11.0301C0.119883 12.9484 0.659398 14.8068 1.55865 16.4852L0 22.1801L5.81479 20.6815C7.43334 21.5807 9.23166 22.0003 11.0302 22.0003C17.0847 22.0003 22.0003 17.0247 22.0003 10.9703C22.0003 8.03284 20.8613 5.27527 18.8232 3.23709H18.8231ZM11.0901 20.142C9.47152 20.142 7.85297 19.7225 6.47419 18.8832L6.11454 18.7034L2.63768 19.6025L3.53684 16.1856L3.29708 15.8259C0.659398 11.5698 1.9183 5.93467 6.23442 3.29699C10.5505 0.659399 16.1256 1.9183 18.7632 6.23442C21.4008 10.5505 20.1419 16.1256 15.8259 18.7632C14.447 19.6624 12.7686 20.1419 11.0901 20.1419V20.142ZM16.3653 13.4881L15.7059 13.1883C15.7059 13.1883 14.7469 12.7687 14.1474 12.4689C14.0874 12.4689 14.0275 12.4089 13.9675 12.4089C13.7876 12.4089 13.6678 12.4689 13.5479 12.5289C13.5479 12.5289 13.488 12.5888 12.6487 13.548C12.5887 13.6678 12.4688 13.7278 12.349 13.7278H12.289C12.2291 13.7278 12.1092 13.6678 12.0492 13.6079L11.7495 13.4881C11.0901 13.1883 10.4906 12.8286 10.011 12.349C9.89115 12.2292 9.71128 12.1093 9.5914 11.9894C9.17177 11.5698 8.75213 11.0901 8.45247 10.5506L8.39248 10.4307C8.33259 10.3708 8.33259 10.3109 8.2726 10.191C8.2726 10.0711 8.2726 9.95122 8.33259 9.89123C8.33259 9.89123 8.57235 9.59148 8.75213 9.4117C8.8721 9.29173 8.932 9.11195 9.05188 8.99207C9.17177 8.8122 9.23175 8.57244 9.17177 8.39257C9.11187 8.09282 8.39248 6.47427 8.2127 6.11462C8.09273 5.93476 7.97294 5.87486 7.79307 5.81487H7.13367C7.0137 5.81487 6.89391 5.87486 6.77394 5.87486L6.71395 5.93476C6.59407 5.99474 6.47419 6.11462 6.3543 6.17452C6.23442 6.29449 6.17444 6.41429 6.05455 6.53426C5.63492 7.07377 5.39516 7.73317 5.39516 8.39257C5.39516 8.8721 5.51504 9.35172 5.69491 9.77135L5.75489 9.95122C6.29441 11.0901 7.0137 12.1093 7.97294 13.0084L8.2127 13.2482C8.39248 13.4281 8.57235 13.548 8.69223 13.7277C9.95113 14.8069 11.3898 15.5861 13.0084 16.0058C13.1882 16.0657 13.428 16.0657 13.6079 16.1257H14.2073C14.507 16.1257 14.8667 16.0058 15.1065 15.8859C15.2863 15.766 15.4062 15.766 15.5261 15.6461L15.646 15.5262C15.7659 15.4063 15.8858 15.3464 16.0057 15.2265C16.1256 15.1066 16.2455 14.9867 16.3054 14.8668C16.4253 14.627 16.4852 14.3272 16.5452 14.0276V13.6079C16.5452 13.6079 16.4852 13.548 16.3653 13.4881V13.4881Z" fill="white"/>
</g>
<defs>
<clipPath id="clip0">
<rect width="22" height="22.2578" fill="white"/>
</clipPath>
</defs>
</svg>
